<mxfile host="app.diagrams.net" agent="Mozilla/5.0 (Windows NT 10.0; Win64; x64) AppleWebKit/537.36 (KHTML, like Gecko) Chrome/131.0.0.0 Safari/537.36" version="25.0.3">
  <diagram name="Seite-1" id="mwLru_svbsurGINqXT3O">
    <mxGraphModel dx="1434" dy="738" grid="1" gridSize="10" guides="1" tooltips="1" connect="1" arrows="1" fold="1" page="1" pageScale="1" pageWidth="827" pageHeight="1169" math="0" shadow="0">
      <root>
        <mxCell id="0" />
        <mxCell id="1" parent="0" />
        <mxCell id="USmnRwq-4XX5yM_jsjo6-1" value="PyPI&lt;div&gt;~~~~~~&lt;/div&gt;&lt;div&gt;~~~~~~&lt;/div&gt;&lt;div&gt;~~~~~~&lt;/div&gt;&lt;div&gt;~~~~~~&lt;/div&gt;&lt;div&gt;~~~~~~&lt;/div&gt;" style="rounded=1;whiteSpace=wrap;html=1;" parent="1" vertex="1">
          <mxGeometry x="150" y="240" width="80" height="120" as="geometry" />
        </mxCell>
        <mxCell id="USmnRwq-4XX5yM_jsjo6-3" value="CFF&lt;div&gt;~~~~~~&lt;/div&gt;&lt;div&gt;~~~~~~&lt;/div&gt;&lt;div&gt;~~~~~~&lt;/div&gt;&lt;div&gt;~~~~~~&lt;/div&gt;&lt;div&gt;~~~~~~&lt;/div&gt;" style="rounded=1;whiteSpace=wrap;html=1;" parent="1" vertex="1">
          <mxGeometry x="360" y="240" width="80" height="120" as="geometry" />
        </mxCell>
        <mxCell id="USmnRwq-4XX5yM_jsjo6-4" value="CRAN&lt;div&gt;~~~~~~&lt;/div&gt;&lt;div&gt;~~~~~~&lt;/div&gt;&lt;div&gt;~~~~~~&lt;/div&gt;&lt;div&gt;~~~~~~&lt;/div&gt;&lt;div&gt;~~~~~~&lt;/div&gt;" style="rounded=1;whiteSpace=wrap;html=1;" parent="1" vertex="1">
          <mxGeometry x="570" y="240" width="80" height="120" as="geometry" />
        </mxCell>
        <mxCell id="USmnRwq-4XX5yM_jsjo6-5" value="" style="ellipse;whiteSpace=wrap;html=1;aspect=fixed;" parent="1" vertex="1">
          <mxGeometry x="270" y="400" width="30" height="30" as="geometry" />
        </mxCell>
        <mxCell id="USmnRwq-4XX5yM_jsjo6-6" value="" style="ellipse;whiteSpace=wrap;html=1;aspect=fixed;backgroundOutline=0;fillColor=none;" parent="1" vertex="1">
          <mxGeometry x="290" y="400" width="30" height="30" as="geometry" />
        </mxCell>
        <mxCell id="USmnRwq-4XX5yM_jsjo6-7" value="" style="ellipse;whiteSpace=wrap;html=1;aspect=fixed;" parent="1" vertex="1">
          <mxGeometry x="480" y="400" width="30" height="30" as="geometry" />
        </mxCell>
        <mxCell id="USmnRwq-4XX5yM_jsjo6-8" value="" style="ellipse;whiteSpace=wrap;html=1;aspect=fixed;backgroundOutline=0;fillColor=none;" parent="1" vertex="1">
          <mxGeometry x="500" y="400" width="30" height="30" as="geometry" />
        </mxCell>
        <mxCell id="USmnRwq-4XX5yM_jsjo6-10" value="" style="endArrow=classic;html=1;rounded=0;entryX=0;entryY=0;entryDx=0;entryDy=0;exitX=1;exitY=1;exitDx=0;exitDy=0;" parent="1" source="USmnRwq-4XX5yM_jsjo6-1" target="USmnRwq-4XX5yM_jsjo6-5" edge="1">
          <mxGeometry width="50" height="50" relative="1" as="geometry">
            <mxPoint x="250" y="350" as="sourcePoint" />
            <mxPoint x="330" y="360" as="targetPoint" />
          </mxGeometry>
        </mxCell>
        <mxCell id="USmnRwq-4XX5yM_jsjo6-11" value="" style="endArrow=classic;html=1;rounded=0;entryX=0.5;entryY=0;entryDx=0;entryDy=0;exitX=0;exitY=1;exitDx=0;exitDy=0;" parent="1" source="USmnRwq-4XX5yM_jsjo6-38" target="USmnRwq-4XX5yM_jsjo6-6" edge="1">
          <mxGeometry width="50" height="50" relative="1" as="geometry">
            <mxPoint x="270" y="410" as="sourcePoint" />
            <mxPoint x="320" y="360" as="targetPoint" />
          </mxGeometry>
        </mxCell>
        <mxCell id="USmnRwq-4XX5yM_jsjo6-12" value="" style="endArrow=classic;html=1;rounded=0;entryX=0.5;entryY=0;entryDx=0;entryDy=0;exitX=1;exitY=1;exitDx=0;exitDy=0;" parent="1" source="USmnRwq-4XX5yM_jsjo6-38" target="USmnRwq-4XX5yM_jsjo6-7" edge="1">
          <mxGeometry width="50" height="50" relative="1" as="geometry">
            <mxPoint x="460" y="400" as="sourcePoint" />
            <mxPoint x="510" y="350" as="targetPoint" />
          </mxGeometry>
        </mxCell>
        <mxCell id="USmnRwq-4XX5yM_jsjo6-13" value="" style="endArrow=classic;html=1;rounded=0;entryX=1;entryY=0;entryDx=0;entryDy=0;exitX=0;exitY=1;exitDx=0;exitDy=0;" parent="1" source="USmnRwq-4XX5yM_jsjo6-4" target="USmnRwq-4XX5yM_jsjo6-8" edge="1">
          <mxGeometry width="50" height="50" relative="1" as="geometry">
            <mxPoint x="560" y="360" as="sourcePoint" />
            <mxPoint x="510" y="350" as="targetPoint" />
          </mxGeometry>
        </mxCell>
        <mxCell id="USmnRwq-4XX5yM_jsjo6-14" value="" style="rounded=1;whiteSpace=wrap;html=1;" parent="1" vertex="1">
          <mxGeometry x="150" y="470" width="500" height="70" as="geometry" />
        </mxCell>
        <mxCell id="USmnRwq-4XX5yM_jsjo6-15" value="" style="endArrow=classic;html=1;rounded=0;exitX=0.172;exitY=0.874;exitDx=0;exitDy=0;exitPerimeter=0;entryX=0.29;entryY=0;entryDx=0;entryDy=0;entryPerimeter=0;" parent="1" source="USmnRwq-4XX5yM_jsjo6-6" target="USmnRwq-4XX5yM_jsjo6-14" edge="1">
          <mxGeometry width="50" height="50" relative="1" as="geometry">
            <mxPoint x="230" y="470" as="sourcePoint" />
            <mxPoint x="300" y="460" as="targetPoint" />
          </mxGeometry>
        </mxCell>
        <mxCell id="USmnRwq-4XX5yM_jsjo6-16" value="" style="endArrow=classic;html=1;rounded=0;exitX=0.168;exitY=0.872;exitDx=0;exitDy=0;exitPerimeter=0;entryX=0.71;entryY=0;entryDx=0;entryDy=0;entryPerimeter=0;" parent="1" source="USmnRwq-4XX5yM_jsjo6-8" target="USmnRwq-4XX5yM_jsjo6-14" edge="1">
          <mxGeometry width="50" height="50" relative="1" as="geometry">
            <mxPoint x="510" y="440" as="sourcePoint" />
            <mxPoint x="505" y="470" as="targetPoint" />
          </mxGeometry>
        </mxCell>
        <mxCell id="USmnRwq-4XX5yM_jsjo6-17" value="" style="endArrow=classic;html=1;rounded=0;exitX=0.5;exitY=1;exitDx=0;exitDy=0;entryX=0.08;entryY=0;entryDx=0;entryDy=0;entryPerimeter=0;" parent="1" source="USmnRwq-4XX5yM_jsjo6-1" target="USmnRwq-4XX5yM_jsjo6-14" edge="1">
          <mxGeometry width="50" height="50" relative="1" as="geometry">
            <mxPoint x="250" y="480" as="sourcePoint" />
            <mxPoint x="190" y="470" as="targetPoint" />
          </mxGeometry>
        </mxCell>
        <mxCell id="USmnRwq-4XX5yM_jsjo6-18" value="" style="endArrow=classic;html=1;rounded=0;exitX=0.5;exitY=1;exitDx=0;exitDy=0;entryX=0.92;entryY=0;entryDx=0;entryDy=0;entryPerimeter=0;" parent="1" source="USmnRwq-4XX5yM_jsjo6-4" target="USmnRwq-4XX5yM_jsjo6-14" edge="1">
          <mxGeometry width="50" height="50" relative="1" as="geometry">
            <mxPoint x="370" y="570" as="sourcePoint" />
            <mxPoint x="610" y="460" as="targetPoint" />
          </mxGeometry>
        </mxCell>
        <mxCell id="USmnRwq-4XX5yM_jsjo6-19" value="Kein GitHub Repository" style="text;html=1;align=center;verticalAlign=middle;whiteSpace=wrap;rounded=0;" parent="1" vertex="1">
          <mxGeometry x="160" y="490" width="60" height="30" as="geometry" />
        </mxCell>
        <mxCell id="USmnRwq-4XX5yM_jsjo6-20" value="Kein GitHub Repository" style="text;html=1;align=center;verticalAlign=middle;whiteSpace=wrap;rounded=0;" parent="1" vertex="1">
          <mxGeometry x="580" y="490" width="60" height="30" as="geometry" />
        </mxCell>
        <mxCell id="USmnRwq-4XX5yM_jsjo6-21" value="Kein CRAN/ PyPI/&lt;br&gt;GitHub&lt;br&gt;Repository" style="text;html=1;align=center;verticalAlign=middle;whiteSpace=wrap;rounded=0;" parent="1" vertex="1">
          <mxGeometry x="370" y="470" width="60" height="70" as="geometry" />
        </mxCell>
        <mxCell id="USmnRwq-4XX5yM_jsjo6-22" value="" style="endArrow=classic;html=1;rounded=0;exitX=0.5;exitY=1;exitDx=0;exitDy=0;entryX=0.5;entryY=0;entryDx=0;entryDy=0;" parent="1" source="USmnRwq-4XX5yM_jsjo6-3" target="USmnRwq-4XX5yM_jsjo6-14" edge="1">
          <mxGeometry width="50" height="50" relative="1" as="geometry">
            <mxPoint x="320" y="530" as="sourcePoint" />
            <mxPoint x="370" y="480" as="targetPoint" />
          </mxGeometry>
        </mxCell>
        <mxCell id="USmnRwq-4XX5yM_jsjo6-23" value="" style="endArrow=classic;html=1;rounded=0;entryX=0.29;entryY=0.996;entryDx=0;entryDy=0;entryPerimeter=0;exitX=0.29;exitY=0.002;exitDx=0;exitDy=0;exitPerimeter=0;" parent="1" source="USmnRwq-4XX5yM_jsjo6-14" target="USmnRwq-4XX5yM_jsjo6-14" edge="1">
          <mxGeometry width="50" height="50" relative="1" as="geometry">
            <mxPoint x="310" y="460" as="sourcePoint" />
            <mxPoint x="350" y="600" as="targetPoint" />
          </mxGeometry>
        </mxCell>
        <mxCell id="USmnRwq-4XX5yM_jsjo6-24" value="" style="endArrow=classic;html=1;rounded=0;exitX=0.71;exitY=0.002;exitDx=0;exitDy=0;exitPerimeter=0;entryX=0.71;entryY=0.995;entryDx=0;entryDy=0;entryPerimeter=0;" parent="1" source="USmnRwq-4XX5yM_jsjo6-14" target="USmnRwq-4XX5yM_jsjo6-14" edge="1">
          <mxGeometry width="50" height="50" relative="1" as="geometry">
            <mxPoint x="500" y="460" as="sourcePoint" />
            <mxPoint x="490" y="540" as="targetPoint" />
          </mxGeometry>
        </mxCell>
        <mxCell id="USmnRwq-4XX5yM_jsjo6-25" value="Filter" style="text;html=1;align=center;verticalAlign=middle;whiteSpace=wrap;rounded=0;" parent="1" vertex="1">
          <mxGeometry x="660" y="490" width="60" height="30" as="geometry" />
        </mxCell>
        <mxCell id="USmnRwq-4XX5yM_jsjo6-26" value="Top-100-Listen" style="text;html=1;align=center;verticalAlign=middle;whiteSpace=wrap;rounded=0;" parent="1" vertex="1">
          <mxGeometry x="660" y="285" width="60" height="30" as="geometry" />
        </mxCell>
        <mxCell id="USmnRwq-4XX5yM_jsjo6-27" value="&amp;lt;=100" style="text;html=1;align=center;verticalAlign=middle;whiteSpace=wrap;rounded=0;" parent="1" vertex="1">
          <mxGeometry x="160" y="580" width="60" height="30" as="geometry" />
        </mxCell>
        <mxCell id="USmnRwq-4XX5yM_jsjo6-28" value="&amp;lt;=100" style="text;html=1;align=center;verticalAlign=middle;whiteSpace=wrap;rounded=0;" parent="1" vertex="1">
          <mxGeometry x="580" y="580" width="60" height="30" as="geometry" />
        </mxCell>
        <mxCell id="USmnRwq-4XX5yM_jsjo6-29" value="&amp;lt;=100" style="text;html=1;align=center;verticalAlign=middle;whiteSpace=wrap;rounded=0;" parent="1" vertex="1">
          <mxGeometry x="370" y="580" width="60" height="30" as="geometry" />
        </mxCell>
        <mxCell id="USmnRwq-4XX5yM_jsjo6-30" value="Ergebnisse" style="text;html=1;align=center;verticalAlign=middle;whiteSpace=wrap;rounded=0;" parent="1" vertex="1">
          <mxGeometry x="655" y="580" width="70" height="30" as="geometry" />
        </mxCell>
        <mxCell id="USmnRwq-4XX5yM_jsjo6-31" value="&lt;div&gt;&lt;span style=&quot;background-color: initial;&quot;&gt;=100&lt;/span&gt;&lt;/div&gt;" style="text;html=1;align=center;verticalAlign=middle;whiteSpace=wrap;rounded=0;" parent="1" vertex="1">
          <mxGeometry x="260" y="580" width="60" height="30" as="geometry" />
        </mxCell>
        <mxCell id="USmnRwq-4XX5yM_jsjo6-32" value="&lt;div&gt;&lt;span style=&quot;background-color: initial;&quot;&gt;=100&lt;/span&gt;&lt;/div&gt;" style="text;html=1;align=center;verticalAlign=middle;whiteSpace=wrap;rounded=0;" parent="1" vertex="1">
          <mxGeometry x="470" y="580" width="60" height="30" as="geometry" />
        </mxCell>
        <mxCell id="USmnRwq-4XX5yM_jsjo6-33" value="" style="endArrow=classic;html=1;rounded=0;entryX=0.5;entryY=0;entryDx=0;entryDy=0;exitX=0.08;exitY=1;exitDx=0;exitDy=0;exitPerimeter=0;" parent="1" source="USmnRwq-4XX5yM_jsjo6-14" target="USmnRwq-4XX5yM_jsjo6-27" edge="1">
          <mxGeometry width="50" height="50" relative="1" as="geometry">
            <mxPoint x="190" y="550" as="sourcePoint" />
            <mxPoint x="350" y="530" as="targetPoint" />
          </mxGeometry>
        </mxCell>
        <mxCell id="USmnRwq-4XX5yM_jsjo6-34" value="" style="endArrow=classic;html=1;rounded=0;exitX=0.29;exitY=1.007;exitDx=0;exitDy=0;exitPerimeter=0;entryX=0.584;entryY=0.004;entryDx=0;entryDy=0;entryPerimeter=0;" parent="1" source="USmnRwq-4XX5yM_jsjo6-14" target="USmnRwq-4XX5yM_jsjo6-31" edge="1">
          <mxGeometry width="50" height="50" relative="1" as="geometry">
            <mxPoint x="299.90999999999997" y="540" as="sourcePoint" />
            <mxPoint x="300" y="570" as="targetPoint" />
          </mxGeometry>
        </mxCell>
        <mxCell id="USmnRwq-4XX5yM_jsjo6-35" value="" style="endArrow=classic;html=1;rounded=0;exitX=0.71;exitY=1.005;exitDx=0;exitDy=0;exitPerimeter=0;entryX=0.583;entryY=0.003;entryDx=0;entryDy=0;entryPerimeter=0;" parent="1" source="USmnRwq-4XX5yM_jsjo6-14" target="USmnRwq-4XX5yM_jsjo6-32" edge="1">
          <mxGeometry width="50" height="50" relative="1" as="geometry">
            <mxPoint x="509.72" y="540" as="sourcePoint" />
            <mxPoint x="509.72" y="580" as="targetPoint" />
          </mxGeometry>
        </mxCell>
        <mxCell id="USmnRwq-4XX5yM_jsjo6-36" value="" style="endArrow=classic;html=1;rounded=0;entryX=0.5;entryY=0;entryDx=0;entryDy=0;exitX=0.5;exitY=1;exitDx=0;exitDy=0;" parent="1" source="USmnRwq-4XX5yM_jsjo6-14" target="USmnRwq-4XX5yM_jsjo6-29" edge="1">
          <mxGeometry width="50" height="50" relative="1" as="geometry">
            <mxPoint x="380" y="540" as="sourcePoint" />
            <mxPoint x="380" y="580" as="targetPoint" />
          </mxGeometry>
        </mxCell>
        <mxCell id="USmnRwq-4XX5yM_jsjo6-37" value="" style="endArrow=classic;html=1;rounded=0;exitX=0.29;exitY=1.007;exitDx=0;exitDy=0;exitPerimeter=0;entryX=0.5;entryY=0;entryDx=0;entryDy=0;" parent="1" target="USmnRwq-4XX5yM_jsjo6-28" edge="1">
          <mxGeometry width="50" height="50" relative="1" as="geometry">
            <mxPoint x="609.87" y="540" as="sourcePoint" />
            <mxPoint x="609.87" y="580" as="targetPoint" />
          </mxGeometry>
        </mxCell>
        <mxCell id="USmnRwq-4XX5yM_jsjo6-38" value="CFF&lt;div&gt;~~~~~~&lt;/div&gt;&lt;div&gt;~~~~~~&lt;/div&gt;&lt;div&gt;~~~~~~&lt;/div&gt;&lt;div&gt;~~~~~~&lt;/div&gt;&lt;div&gt;~~~~~~&lt;/div&gt;" style="rounded=1;whiteSpace=wrap;html=1;" parent="1" vertex="1">
          <mxGeometry x="360" y="40" width="80" height="120" as="geometry" />
        </mxCell>
        <mxCell id="USmnRwq-4XX5yM_jsjo6-39" value="" style="endArrow=classic;html=1;rounded=0;exitX=0.5;exitY=1;exitDx=0;exitDy=0;entryX=0.5;entryY=0;entryDx=0;entryDy=0;" parent="1" source="USmnRwq-4XX5yM_jsjo6-38" target="USmnRwq-4XX5yM_jsjo6-3" edge="1">
          <mxGeometry width="50" height="50" relative="1" as="geometry">
            <mxPoint x="410" y="260" as="sourcePoint" />
            <mxPoint x="460" y="210" as="targetPoint" />
          </mxGeometry>
        </mxCell>
        <mxCell id="USmnRwq-4XX5yM_jsjo6-40" value="Quelle" style="text;html=1;align=center;verticalAlign=middle;whiteSpace=wrap;rounded=0;" parent="1" vertex="1">
          <mxGeometry x="660" y="85" width="60" height="30" as="geometry" />
        </mxCell>
        <mxCell id="USmnRwq-4XX5yM_jsjo6-41" value="Top PyPI Packages" style="text;html=1;align=center;verticalAlign=middle;whiteSpace=wrap;rounded=0;" parent="1" vertex="1">
          <mxGeometry x="160" y="85" width="60" height="30" as="geometry" />
        </mxCell>
        <mxCell id="USmnRwq-4XX5yM_jsjo6-42" value="METACRAN" style="text;html=1;align=center;verticalAlign=middle;whiteSpace=wrap;rounded=0;" parent="1" vertex="1">
          <mxGeometry x="575" y="85" width="70" height="30" as="geometry" />
        </mxCell>
        <mxCell id="USmnRwq-4XX5yM_jsjo6-43" value="" style="endArrow=classic;html=1;rounded=0;entryX=0.5;entryY=0;entryDx=0;entryDy=0;exitX=0.5;exitY=1;exitDx=0;exitDy=0;" parent="1" source="USmnRwq-4XX5yM_jsjo6-41" target="USmnRwq-4XX5yM_jsjo6-1" edge="1">
          <mxGeometry width="50" height="50" relative="1" as="geometry">
            <mxPoint x="120" y="140" as="sourcePoint" />
            <mxPoint x="160" y="150" as="targetPoint" />
          </mxGeometry>
        </mxCell>
        <mxCell id="USmnRwq-4XX5yM_jsjo6-44" value="" style="endArrow=classic;html=1;rounded=0;exitX=0.5;exitY=1;exitDx=0;exitDy=0;entryX=0.5;entryY=0;entryDx=0;entryDy=0;" parent="1" source="USmnRwq-4XX5yM_jsjo6-42" target="USmnRwq-4XX5yM_jsjo6-4" edge="1">
          <mxGeometry width="50" height="50" relative="1" as="geometry">
            <mxPoint x="580" y="200" as="sourcePoint" />
            <mxPoint x="630" y="150" as="targetPoint" />
          </mxGeometry>
        </mxCell>
      </root>
    </mxGraphModel>
  </diagram>
</mxfile>
